<svg width="512" height="512" viewBox="0 0 512 512" fill="none" xmlns="http://www.w3.org/2000/svg">
<path d="M435.2 391H390.4V194.125L256 278.5L121.6 194.125V391H76.8V121H103.68L256 216.625L408.32 121H435.2M435.2 76H76.8C51.936 76 32 96.025 32 121V391C32 402.935 36.72 414.381 45.1216 422.82C53.5232 431.259 64.9183 436 76.8 436H435.2C447.082 436 458.477 431.259 466.878 422.82C475.28 414.381 480 402.935 480 391V121C480 109.065 475.28 97.6193 466.878 89.1802C458.477 80.7411 447.082 76 435.2 76Z" fill="#13cb00"/>
</svg>
