<svg width="120" height="40" viewBox="0 0 120 40" fill="none" xmlns="http://www.w3.org/2000/svg">
<path d="M13.284 26.424C13.824 26.64 14.688 27.432 15.084 28.044C15.516 28.728 15.444 29.664 14.832 30.384C14.616 30.636 14.508 30.672 14.4 30.636C14.256 30.564 14.256 30.24 14.4 29.88C14.472 29.7 14.328 28.224 14.256 28.116C14.076 27.936 11.376 28.08 10.188 28.404C10.116 28.404 9.936 28.44 9.792 28.44L9.432 28.548C9.324 28.548 9.108 28.584 9 28.584L8.388 28.692C8.208 28.764 7.992 28.8 7.884 28.836C7.74 28.836 7.56 28.908 7.488 28.98C7.38 29.016 7.272 29.016 7.272 28.98C7.272 28.98 7.236 28.98 7.164 29.052C7.128 29.088 7.02 29.124 7.02 29.088C7.02 29.052 6.984 29.052 6.912 29.124C6.84 29.16 6.804 29.196 6.804 29.16C6.804 29.16 6.552 29.196 6.336 29.34C6.048 29.412 5.832 29.448 5.832 29.448C5.832 29.412 5.796 29.412 5.688 29.484C5.652 29.52 5.472 29.628 5.328 29.664L5.04 29.736L4.896 30.852C4.752 31.5 4.644 32.076 4.644 32.184C4.644 32.508 4.86 32.76 5.04 32.76C5.112 32.76 5.184 32.796 5.184 32.832C5.184 32.868 5.04 32.904 4.896 32.904C4.608 32.904 4.536 32.868 4.428 32.688C4.248 32.292 4.14 31.644 4.14 30.636C4.14 30.204 4.068 30.06 3.996 30.06C3.96 30.06 3.888 30.096 3.888 30.132C3.852 30.168 3.564 30.24 3.24 30.42L2.52 30.672C2.412 30.744 2.304 30.78 2.268 30.744C2.196 30.708 2.196 30.708 2.232 30.78C2.304 30.924 1.944 30.996 1.584 30.924C1.332 30.852 0.504 30.132 0.504 29.988C0.504 29.952 0.36 29.88 0.252 29.808C0.144 29.772 0.072 29.664 0.072 29.52C0.072 29.232 0.576 29.016 3.348 27.972L4.248 27.684L4.32 26.82L4.572 25.308C4.644 24.912 4.788 24.516 4.788 24.336L5.292 22.536C5.328 22.356 5.472 21.816 5.652 21.42L6.048 20.34C6.084 20.16 6.192 19.8 6.264 19.692C6.408 19.404 7.02 17.568 7.02 17.496C7.02 17.496 7.128 17.352 7.2 17.172C7.236 16.992 7.308 16.776 7.308 16.74C7.344 16.596 7.74 15.372 8.172 14.4C8.352 13.896 8.604 13.176 8.748 12.888L9.288 11.412L9.72 10.116C10.548 8.064 10.944 7.092 10.8 6.912C10.8 6.732 10.692 6.588 10.656 6.588C10.404 6.588 11.088 5.076 11.556 4.5C11.88 4.176 12.204 4.176 13.104 4.464C13.896 4.824 14.184 5.004 14.076 5.256C14.04 5.328 14.04 5.508 14.076 5.544C14.076 5.652 14.076 5.688 14.004 5.652C13.896 5.544 13.896 5.58 13.932 5.652C14.004 5.688 13.896 5.904 13.824 6.084L13.608 6.66C13.608 6.768 13.5 7.02 13.428 7.236C13.32 7.452 13.248 7.74 13.212 7.884C13.212 7.992 13.14 8.172 13.068 8.28C13.032 8.424 12.996 8.568 12.996 8.604C13.032 8.64 13.032 8.676 12.888 8.676C12.852 8.676 12.816 8.748 12.852 8.784C12.888 8.82 12.816 8.928 12.744 9.036C12.672 9.144 12.636 9.252 12.636 9.288C12.672 9.36 12.636 9.36 12.564 9.324C12.456 9.288 12.456 9.288 12.528 9.36C12.636 9.504 12.564 9.9 12.42 9.828C12.384 9.756 12.384 9.756 12.42 9.864C12.492 9.972 12.384 10.26 12.312 10.188C12.24 10.188 12.24 10.188 12.276 10.26C12.276 10.332 12.24 10.476 12.204 10.692C12.096 10.872 12.06 10.98 12.06 10.98C12.096 10.98 12.06 11.124 11.988 11.304C11.844 11.448 11.772 11.628 11.772 11.7C11.772 11.916 11.412 12.672 11.34 12.6C11.304 12.564 11.304 12.564 11.34 12.636C11.34 12.672 11.268 13.068 11.16 13.392C10.764 14.292 10.008 16.344 9.792 16.704L9.504 17.46C9.18 18.396 8.46 20.124 8.424 20.16C8.388 20.196 8.352 20.268 8.352 20.34C8.352 20.448 8.28 20.592 8.172 20.664C8.028 20.844 8.028 20.88 8.1 20.952C8.208 20.988 8.208 21.024 8.1 21.024C8.064 21.024 8.028 21.096 8.064 21.168C8.064 21.24 8.064 21.276 7.992 21.24C7.956 21.24 7.92 21.312 7.92 21.456C7.92 21.636 7.884 21.672 7.74 21.672C7.704 21.636 7.668 21.636 7.668 21.672C7.668 21.708 7.704 21.78 7.74 21.78C7.884 21.816 7.848 21.816 7.704 21.816C7.632 21.852 7.596 21.888 7.596 22.032C7.632 22.212 7.596 22.356 7.524 22.392C7.488 22.428 7.452 22.536 7.452 22.572C7.488 22.644 7.452 22.68 7.38 22.644C7.272 22.608 7.272 22.608 7.344 22.716C7.416 22.788 7.416 22.896 7.272 23.292C7.164 23.508 7.02 23.652 6.984 23.616C6.948 23.58 6.948 23.58 6.984 23.652C7.02 23.688 6.984 23.904 6.912 24.084C6.228 25.992 6.048 26.568 5.94 26.64C5.832 26.748 5.832 26.784 5.904 26.784C5.976 26.784 5.976 26.82 5.868 26.856C5.796 26.892 5.724 26.928 5.832 26.928C5.904 26.928 5.904 26.964 5.832 27.072C5.688 27.288 5.796 27.288 6.12 27.144C6.444 27.036 7.956 26.748 9.072 26.532C11.124 26.172 12.528 26.136 13.284 26.424ZM24.9992 22.752C24.8912 22.824 24.8912 22.86 24.9632 22.824C25.1072 22.752 24.8912 23.112 24.3872 23.832C22.9112 25.92 22.2632 26.568 21.2912 26.856C20.7152 27 19.3472 27.108 18.8072 27C18.2672 26.892 18.0152 26.784 17.6912 26.496C17.4032 26.244 16.9712 25.416 17.0432 25.272C17.0792 25.236 17.0432 25.164 16.9712 25.164C16.8272 25.128 16.8272 22.932 16.9712 22.896C17.0432 22.86 17.0432 22.788 17.0432 22.716C17.0072 22.644 17.0432 22.5 17.0792 22.392C17.1512 22.32 17.1872 22.284 17.1512 22.284C17.1152 22.284 17.1512 22.14 17.2232 21.924C17.3312 21.672 17.3312 21.528 17.2952 21.528C17.2952 21.456 17.3312 21.384 17.2952 21.312C17.3312 21.276 17.3672 21.276 17.3672 21.276C17.4032 21.312 17.5832 21.132 17.7632 20.808C17.9072 20.556 18.0872 20.34 18.1232 20.34C18.1592 20.34 18.1952 20.268 18.1952 20.196C18.1952 20.016 19.4192 18.72 20.0312 18.252C21.1472 17.388 21.8672 17.244 22.9832 17.604C24.1712 17.964 24.9272 18.504 24.8912 19.008C24.8912 19.368 24.7832 19.872 24.7112 19.872C24.6752 19.872 24.6392 19.944 24.6392 20.052C24.6392 20.16 24.5672 20.268 24.4592 20.34C24.4232 20.448 24.3512 20.52 24.3512 20.592C24.2792 20.88 22.9472 21.96 21.9752 22.428C21.2912 22.788 21.2192 22.824 20.3192 22.824L19.3832 22.86L19.3112 23.4C19.2752 23.724 19.2032 23.976 19.1312 23.976C19.0952 23.976 19.0952 24.012 19.1672 24.084C19.2032 24.156 19.2752 24.48 19.3112 24.804C19.3112 25.128 19.3832 25.416 19.4192 25.452C19.4912 25.452 19.5272 25.524 19.5272 25.632C19.5272 25.74 19.9592 26.244 20.0672 26.244C20.1392 26.244 21.2912 25.38 22.1912 24.696C23.1992 23.868 24.6752 22.392 25.1432 21.744C25.5032 21.24 25.7912 21.096 25.6832 21.456C25.6112 21.78 25.1432 22.644 24.9992 22.752ZM19.9952 21.348C19.9232 21.348 19.8872 21.42 19.8872 21.492C19.8872 21.636 19.9232 21.636 20.6432 21.168C21.2912 20.736 21.7232 20.34 22.1192 19.728C22.5872 18.972 22.6232 18.828 22.2272 19.116C22.0472 19.26 21.8672 19.368 21.8312 19.368C21.6512 19.368 20.5352 20.556 20.2112 21.096C20.1392 21.204 20.0312 21.348 19.9952 21.348ZM24.3849 22.932C24.3849 22.824 24.4569 22.716 24.4929 22.716C24.5289 22.68 24.5289 22.644 24.5289 22.572C24.4929 22.536 24.5289 22.464 24.5649 22.428C24.6009 22.428 24.6369 22.356 24.6369 22.248C24.6369 22.212 24.7089 21.996 24.7809 21.816C24.8529 21.636 24.9609 21.456 24.9609 21.42C24.9249 21.384 24.9609 21.348 24.9969 21.348C25.0329 21.348 25.0689 21.348 25.0689 21.312C25.0329 21.24 25.2489 20.772 25.2849 20.772C25.3209 20.772 25.3929 20.736 25.3929 20.664C25.3929 20.52 26.5449 18.756 26.6889 18.72C26.7249 18.684 26.7609 18.648 26.7609 18.612C26.7609 18.504 27.8409 17.496 28.0209 17.46C28.3449 17.388 28.8489 17.496 29.4249 17.748C29.7489 17.892 30.1809 18.072 30.3969 18.108C30.9009 18.216 31.5849 18.504 31.7649 18.684L31.9089 18.972C32.0169 19.188 32.0889 19.8 32.0169 19.8C31.9809 19.8 31.9809 19.908 32.0169 19.98C32.0529 20.088 32.0529 20.196 32.0169 20.196C31.9809 20.232 31.9449 20.304 31.9449 20.448C31.8369 20.952 31.3689 22.032 31.2609 21.996C31.2249 21.96 31.1889 21.996 31.2249 22.068C31.2609 22.104 31.2609 22.176 31.2249 22.176C31.1889 22.176 31.1529 22.248 31.1169 22.392C31.0809 22.464 31.0449 22.536 31.0089 22.5C30.9729 22.5 30.9369 22.536 30.9369 22.608V22.788L31.3329 22.608C32.0169 22.356 33.6369 21.528 33.9969 21.24C34.5729 20.772 34.6089 20.772 34.6449 20.808C34.6809 20.916 34.4649 21.384 34.3929 21.312C34.3569 21.312 34.3209 21.312 34.3209 21.348C34.3209 21.528 32.8449 22.86 32.6289 22.86C32.5929 22.86 32.5569 22.86 32.5209 22.896C32.4849 23.04 31.6209 23.58 31.2609 23.688C31.0809 23.76 30.7569 23.796 30.5769 23.796C30.2529 23.796 30.2169 23.832 30.0009 24.12C29.8929 24.264 29.7849 24.408 29.7489 24.408C29.7129 24.408 29.6769 24.444 29.6769 24.516C29.6769 24.588 29.6409 24.624 29.6049 24.624C29.5689 24.624 29.4969 24.696 29.4249 24.804C29.3529 24.948 28.9929 25.344 28.5969 25.74C27.7689 26.604 27.2289 26.892 26.4369 26.928C26.1489 26.964 25.8249 26.964 25.6809 26.928C25.2489 26.892 24.8169 26.748 24.6369 26.604C24.3129 26.388 24.0969 25.776 24.0609 25.056C24.0609 24.48 24.1689 23.508 24.3129 23.22C24.3129 23.184 24.3489 23.004 24.3849 22.932ZM25.8969 25.128C25.8249 25.164 25.8249 25.2 25.8969 25.236C25.9689 25.236 26.0049 25.812 25.9329 25.92C25.9329 25.956 25.9689 25.992 26.0409 25.992C26.1129 26.028 26.3649 25.884 26.5809 25.632C26.7969 25.416 27.0849 25.128 27.1929 24.984C27.5169 24.588 28.4169 23.364 28.4169 23.292C28.4169 23.256 28.3449 23.148 28.2369 23.004C28.0569 22.788 27.8769 22.464 27.8049 22.176C27.7329 21.924 27.7689 20.7 27.8409 20.376L27.8769 20.052L27.7689 20.268L27.5889 20.484C27.5529 20.484 27.5169 20.592 27.4809 20.7C27.4449 20.772 27.4089 20.844 27.3729 20.844C27.3369 20.844 27.3009 20.88 27.3009 20.952C27.3009 21.024 27.2649 21.096 27.1929 21.168C27.1569 21.204 27.0489 21.384 27.0129 21.528C26.9409 21.672 26.9049 21.816 26.8689 21.816C26.8329 21.816 26.7609 21.96 26.7249 22.104C26.6529 22.248 26.5809 22.392 26.5449 22.356C26.4729 22.32 26.4369 22.428 26.4729 22.608C26.4729 22.68 26.4369 22.788 26.3649 22.86C26.2929 22.932 26.2929 23.004 26.3289 22.968C26.4009 22.932 26.4009 22.968 26.2929 23.076C26.2569 23.184 26.2209 23.292 26.2569 23.328C26.2569 23.328 26.2209 23.436 26.1489 23.58C26.0769 23.688 26.0409 23.724 26.1129 23.688C26.1489 23.688 26.1849 23.688 26.1849 23.724C26.1849 23.76 26.1489 23.796 26.1129 23.796C26.0769 23.796 26.0409 23.832 26.0769 23.868C26.1129 23.904 26.0769 23.94 26.0409 23.94C26.0409 23.94 26.0049 24.192 25.9689 24.48C25.9689 24.768 25.9329 25.056 25.8969 25.128ZM29.7849 20.52C29.6769 20.88 29.6769 20.916 29.7849 20.88C29.8569 20.844 29.8569 20.808 29.8569 20.772C29.8209 20.772 29.8569 20.7 29.8929 20.628L30.0009 20.304C30.0009 20.232 30.0369 20.088 30.0729 20.016C30.1089 19.944 30.1089 19.872 30.0729 19.872C30.0009 19.872 29.8929 20.124 29.7849 20.52ZM30.0729 19.692C30.0729 19.764 30.0729 19.8 30.1089 19.8C30.1449 19.8 30.1809 19.764 30.1809 19.692C30.1809 19.62 30.1809 19.584 30.1449 19.584C30.1449 19.584 30.1089 19.62 30.0729 19.692Z" fill="black"/>
<path d="M47.076 21.096L47.184 20.556C47.112 20.556 45.492 21.06 45.24 21.204C45.096 21.276 44.952 21.276 44.916 21.276C44.808 21.276 44.34 21.492 44.052 21.6C43.836 21.708 43.296 21.564 43.404 21.456C43.404 21.384 43.404 21.384 43.332 21.42C43.26 21.492 42.684 20.988 42.72 20.772C42.684 20.664 42.684 20.664 42.612 20.772C42.576 20.844 42.54 20.844 42.54 20.808C42.54 20.772 42.432 20.628 42.36 20.484C42 20.088 41.964 20.088 43.908 19.332C44.952 18.936 46.032 18.576 47.508 18.252C47.796 18.18 47.832 18.144 47.976 17.748C48.048 17.496 48.084 17.244 48.084 17.172C48.084 17.172 48.156 16.956 48.264 16.812C48.3 16.632 48.336 16.524 48.372 16.524C48.408 16.524 48.408 16.452 48.408 16.38C48.408 16.2 49.2 13.968 49.272 13.896L49.38 13.644C49.38 13.392 50.64 10.512 51.576 8.388C51.828 7.884 51.936 7.488 51.936 7.488C51.936 7.488 51.864 7.416 51.756 7.344C51.648 7.272 51.648 7.272 51.684 7.344C51.72 7.416 51.684 7.416 51.54 7.308C51.324 7.2 51.216 7.056 51.396 7.2C51.504 7.236 51.468 7.164 51.36 7.056C51.216 6.948 51.252 6.912 51.576 6.48C51.972 5.976 52.404 5.652 52.62 5.58C52.944 5.508 54.132 5.904 54.708 6.336C54.888 6.444 54.888 6.912 54.78 6.912C54.744 6.912 54.744 6.948 54.744 6.984C54.852 7.092 54.6 7.452 54.492 7.38C54.456 7.344 54.456 7.416 54.528 7.488C54.672 7.596 54.672 7.632 54.492 7.56C54.348 7.524 54.348 7.524 54.456 7.632C54.6 7.812 54.6 7.812 54.456 7.848C54.42 7.848 54.384 7.884 54.384 7.956C54.42 7.992 54.384 8.028 54.348 8.028C54.276 8.028 54.24 8.064 54.24 8.1C54.312 8.244 54.168 8.64 54.06 8.532C54.024 8.496 54.024 8.568 54.096 8.676C54.204 8.784 54.204 8.784 54.06 8.748C53.988 8.712 53.952 8.712 53.988 8.784C54.06 8.928 53.916 9.216 53.772 9.108C53.736 9.072 53.664 9.072 53.736 9.144C53.844 9.288 53.628 9.828 53.484 9.972L53.34 10.152C53.34 10.404 53.268 10.728 53.196 10.728C53.16 10.728 53.124 10.836 53.088 10.908C53.088 10.98 53.016 11.088 52.98 11.124C52.944 11.196 52.944 11.232 52.98 11.232C52.98 11.232 52.98 11.304 52.944 11.34C52.872 11.412 52.872 11.448 52.908 11.448C52.944 11.448 52.944 11.484 52.872 11.52C52.764 11.556 52.728 11.664 52.692 11.772C52.692 11.844 52.584 12.132 52.476 12.312C52.368 12.564 52.332 12.78 52.332 12.78C52.332 12.852 52.296 12.852 52.224 12.816C52.152 12.78 52.152 12.816 52.188 12.888C52.224 13.068 52.044 13.572 51.9 13.464C51.828 13.428 51.828 13.464 51.9 13.572C51.936 13.644 51.9 13.716 51.756 13.824C51.684 13.968 51.648 14.004 51.684 13.968C51.72 13.896 51.792 13.896 51.792 14.004C51.792 14.004 51.72 14.076 51.684 14.076C51.612 14.112 51.576 14.184 51.576 14.256C51.612 14.292 51.612 14.364 51.54 14.364C51.504 14.364 51.468 14.472 51.468 14.544C51.468 14.652 51.432 14.796 51.396 14.832C51.36 14.832 51.288 14.94 51.252 15.084C51.252 15.192 51.108 15.408 51.072 15.552L50.892 15.948C50.892 16.02 50.856 16.092 50.82 16.164C50.748 16.2 50.748 16.272 50.784 16.272C50.82 16.272 50.82 16.272 50.784 16.344C50.748 16.38 50.676 16.524 50.676 16.632C50.64 16.812 50.532 16.956 50.46 17.028C50.424 17.136 50.424 17.172 50.424 17.172C50.46 17.172 50.46 17.208 50.424 17.28C50.352 17.352 50.244 17.496 50.244 17.604C50.208 17.712 50.244 17.748 50.496 17.712C50.82 17.676 52.116 17.496 52.692 17.496C52.872 17.46 54.24 17.424 55.68 17.352C57.12 17.352 58.308 17.28 58.344 17.28C58.416 17.244 58.776 16.2 58.704 16.2C58.704 16.2 58.74 16.092 58.848 15.984C58.92 15.84 58.956 15.696 58.956 15.588L59.28 14.832L59.604 13.644L60 12.744C60.072 12.492 60.18 12.204 60.18 12.132C60.288 11.628 61.512 8.712 62.304 6.984C62.808 6.012 62.844 5.868 62.664 5.796C62.52 5.688 62.52 5.652 62.628 5.616C62.664 5.58 62.664 5.58 62.556 5.58C62.412 5.544 62.412 5.508 62.448 5.22C62.52 4.896 62.628 4.824 62.988 4.392C63.168 4.212 63.24 4.176 63.492 4.248C64.14 4.356 65.292 5.256 65.328 5.652C65.364 5.832 65.22 6.372 65.148 6.48C65.148 6.516 65.112 6.588 65.112 6.624C65.076 6.732 64.824 7.272 64.824 7.272C64.788 7.272 64.716 7.344 64.716 7.452C64.644 7.812 64.644 7.848 64.572 7.848C64.5 7.848 64.32 8.316 64.356 8.424C64.356 8.496 64.356 8.496 64.284 8.424C64.212 8.388 64.176 8.532 64.176 8.712C64.212 8.748 64.176 8.784 64.14 8.784C64.104 8.784 64.068 8.784 64.104 8.856C64.14 8.892 64.032 9.036 63.888 9.216C63.816 9.396 63.78 9.504 63.816 9.504C63.816 9.504 63.816 9.576 63.78 9.612C63.708 9.684 63.708 9.756 63.708 9.756C63.78 9.756 63.744 9.792 63.708 9.864C63.6 9.9 63.564 9.972 63.6 10.044C63.636 10.08 63.636 10.08 63.564 10.08C63.528 10.08 63.492 10.188 63.456 10.44C63.42 10.548 63.348 10.764 63.276 10.872C63.204 10.98 63.132 11.124 63.132 11.232C63.132 11.34 63.024 11.448 62.952 11.52C62.916 11.628 62.844 11.736 62.844 11.772C62.808 11.952 62.664 12.312 62.592 12.276V12.492C62.592 12.708 62.412 12.96 62.304 12.924C62.304 12.888 62.268 12.996 62.268 13.104C62.268 13.284 62.232 13.392 62.232 13.392C62.16 13.428 62.16 13.5 62.16 13.536C62.232 13.572 62.232 13.608 62.16 13.608C62.088 13.608 62.016 13.716 61.944 13.896C61.908 14.256 61.908 14.256 61.836 14.4C61.8 14.472 61.728 14.544 61.692 14.508C61.692 14.472 61.656 14.544 61.62 14.616C61.584 15.084 61.548 15.156 61.44 15.12C61.404 15.12 61.368 15.12 61.368 15.156C61.404 15.192 61.404 15.336 61.368 15.444C61.296 15.696 61.296 15.732 61.26 15.588C61.188 15.48 61.188 15.588 61.224 15.768C61.224 15.984 61.188 16.092 61.152 16.128C61.08 16.164 61.044 16.272 61.044 16.38C61.044 16.524 61.008 16.596 60.972 16.596C60.972 16.632 60.864 16.848 60.756 17.028L60.648 17.424L60.9 17.46C61.008 17.496 61.512 17.532 61.98 17.568L63.204 17.748C63.528 17.82 63.924 18.216 63.924 18.396C63.924 18.468 63.816 18.396 63.744 18.324C63.528 18.108 63.456 18.072 62.88 18C62.16 17.928 60.648 17.964 60.468 18.072C60.468 18.072 60.36 18.18 60.324 18.324C60.288 18.432 60.252 18.576 60.18 18.612C60.108 18.684 60.072 18.792 60.108 18.864C60.108 18.9 60.036 19.08 59.964 19.26C59.928 19.476 59.856 19.656 59.856 19.728C59.892 19.8 59.784 20.016 59.712 20.268C59.676 20.484 59.64 20.7 59.676 20.772C59.676 20.808 59.676 20.844 59.64 20.844C59.532 20.844 59.46 20.952 59.46 21.06C59.46 21.132 59.424 21.24 59.388 21.276C59.352 21.276 59.316 21.348 59.316 21.42C59.244 21.996 59.064 22.536 59.028 22.536C59.028 22.5 58.992 22.608 59.028 22.716C59.028 22.788 58.992 23.04 58.92 23.292C58.884 23.616 58.812 23.868 58.848 23.868C58.812 23.94 58.776 23.976 58.704 23.94C58.668 23.868 58.632 23.904 58.704 23.976C58.74 24.048 58.776 24.192 58.74 24.3C58.704 24.372 58.632 24.516 58.704 24.588C58.74 24.66 58.704 24.696 58.632 24.624C58.56 24.588 58.56 24.588 58.596 24.66C58.632 24.768 58.272 26.244 58.236 26.316C58.2 26.316 58.164 26.532 58.164 26.784C58.092 27 58.056 27.18 58.02 27.18C57.984 27.216 57.948 27.396 57.948 27.576C57.948 27.72 57.912 28.044 57.876 28.26C57.732 28.908 57.552 30.996 57.66 31.14C57.696 31.176 57.804 31.176 57.912 31.176C58.128 31.14 58.128 31.176 57.984 31.356C57.804 31.608 57.48 31.536 57.264 31.248C57.12 31.032 56.94 30.456 56.796 30.024C56.796 29.952 56.796 29.808 56.76 29.664L56.688 29.124C56.688 28.944 56.58 28.548 56.508 28.188C56.4 27.252 56.508 23.76 56.652 23.868C56.688 23.868 56.724 23.868 56.688 23.832C56.688 23.76 56.688 23.544 56.76 23.292C56.832 23.148 56.94 22.86 56.94 22.716L57.048 22.104C57.12 21.96 57.228 21.708 57.264 21.564C57.3 21.348 57.804 19.296 58.056 18.396L58.164 18.18L57.876 18.252C57.696 18.288 57.552 18.288 57.516 18.288C57.516 18.252 57.372 18.288 57.192 18.324L55.716 18.504C55.608 18.504 55.5 18.54 55.464 18.576C55.428 18.612 55.248 18.612 55.032 18.684C54.744 18.684 54.528 18.72 54.492 18.756C54.384 18.792 54.132 18.828 53.916 18.828C53.7 18.864 53.52 18.9 53.556 18.936C53.556 18.936 53.484 18.972 53.304 18.972C53.088 18.972 52.98 19.008 52.8 19.08L52.368 19.224C52.296 19.224 52.116 19.224 52.008 19.26C51.9 19.296 51.72 19.332 51.576 19.332C51.504 19.368 51.324 19.476 51.216 19.476L50.316 19.692C49.776 19.8 49.632 19.8 49.596 19.8L49.2 20.952C49.2 20.988 49.164 21.06 49.092 21.06C48.984 21.06 48.984 21.06 49.092 21.132C49.2 21.168 49.2 21.24 49.092 21.564C49.092 21.816 48.984 22.176 48.948 22.428C48.912 22.752 48.804 22.968 48.768 22.968V23.292C48.696 24.192 48.516 25.632 48.444 25.632C48.372 25.668 48.372 25.74 48.444 25.776C48.516 25.812 48.552 25.848 48.516 25.884C48.408 25.956 48.372 27.18 48.444 27.684C48.48 28.404 48.624 29.124 48.804 29.376L48.984 29.592L49.236 29.376C49.38 29.196 49.596 29.124 49.668 29.124C49.812 29.124 49.812 29.16 49.668 29.448C49.452 29.88 49.092 30.024 48.588 29.844C48.228 29.7 47.724 29.304 47.832 29.16C47.832 29.16 47.796 29.124 47.688 29.124C47.616 29.124 46.968 28.008 47.004 27.828C47.004 27.72 46.932 27.684 46.896 27.684C46.86 27.684 46.752 27.504 46.572 26.712C46.392 25.884 46.356 25.164 46.5 24.372C46.5 24.228 46.572 23.868 46.608 23.616C46.644 23.292 46.68 23.004 46.716 22.896C46.752 22.824 46.788 22.644 46.788 22.536C46.788 22.428 46.824 22.176 46.86 21.996L47.076 21.096ZM71.9562 22.752C71.8482 22.824 71.8482 22.86 71.9202 22.824C72.0642 22.752 71.8482 23.112 71.3442 23.832C69.8682 25.92 69.2202 26.568 68.2482 26.856C67.6722 27 66.3042 27.108 65.7642 27C65.2242 26.892 64.9722 26.784 64.6482 26.496C64.3602 26.244 63.9282 25.416 64.0002 25.272C64.0362 25.236 64.0002 25.164 63.9282 25.164C63.7842 25.128 63.7842 22.932 63.9282 22.896C64.0002 22.86 64.0002 22.788 64.0002 22.716C63.9642 22.644 64.0002 22.5 64.0362 22.392C64.1082 22.32 64.1442 22.284 64.1082 22.284C64.0722 22.284 64.1082 22.14 64.1802 21.924C64.2882 21.672 64.2882 21.528 64.2522 21.528C64.2522 21.456 64.2882 21.384 64.2522 21.312C64.2882 21.276 64.3242 21.276 64.3242 21.276C64.3602 21.312 64.5402 21.132 64.7202 20.808C64.8642 20.556 65.0442 20.34 65.0802 20.34C65.1162 20.34 65.1522 20.268 65.1522 20.196C65.1522 20.016 66.3762 18.72 66.9882 18.252C68.1042 17.388 68.8242 17.244 69.9402 17.604C71.1282 17.964 71.8842 18.504 71.8482 19.008C71.8482 19.368 71.7402 19.872 71.6682 19.872C71.6322 19.872 71.5962 19.944 71.5962 20.052C71.5962 20.16 71.5242 20.268 71.4162 20.34C71.3802 20.448 71.3082 20.52 71.3082 20.592C71.2362 20.88 69.9042 21.96 68.9322 22.428C68.2482 22.788 68.1762 22.824 67.2762 22.824L66.3402 22.86L66.2682 23.4C66.2322 23.724 66.1602 23.976 66.0882 23.976C66.0522 23.976 66.0522 24.012 66.1242 24.084C66.1602 24.156 66.2322 24.48 66.2682 24.804C66.2682 25.128 66.3402 25.416 66.3762 25.452C66.4482 25.452 66.4842 25.524 66.4842 25.632C66.4842 25.74 66.9162 26.244 67.0242 26.244C67.0962 26.244 68.2482 25.38 69.1482 24.696C70.1562 23.868 71.6322 22.392 72.1002 21.744C72.4602 21.24 72.7482 21.096 72.6402 21.456C72.5682 21.78 72.1002 22.644 71.9562 22.752ZM66.9522 21.348C66.8802 21.348 66.8442 21.42 66.8442 21.492C66.8442 21.636 66.8802 21.636 67.6002 21.168C68.2482 20.736 68.6802 20.34 69.0762 19.728C69.5442 18.972 69.5802 18.828 69.1842 19.116C69.0042 19.26 68.8242 19.368 68.7882 19.368C68.6082 19.368 67.4922 20.556 67.1682 21.096C67.0962 21.204 66.9882 21.348 66.9522 21.348ZM79.37 24.912C78.974 25.668 78.578 26.316 78.326 26.424C77.93 26.532 76.994 26.856 76.418 26.712C76.274 26.676 76.058 26.64 76.058 26.568C76.058 26.568 76.058 26.532 76.022 26.568C75.95 26.568 75.878 26.496 75.806 26.424C75.59 26.28 75.662 25.812 75.626 25.488C75.59 25.056 75.878 23.76 75.986 23.76C76.022 23.76 76.058 23.616 76.058 23.472C76.058 23.328 76.13 23.148 76.166 23.112C76.202 23.076 76.202 23.04 76.166 23.04C76.166 23.04 76.166 22.896 76.274 22.716C76.346 22.572 76.418 22.356 76.418 22.284C76.454 22.212 76.526 21.96 76.634 21.816C76.706 21.672 76.706 21.564 76.706 21.564C76.634 21.564 76.886 20.952 77.138 20.484C77.21 20.268 77.282 20.124 77.282 20.088L77.39 19.98C77.426 19.944 77.426 19.836 77.426 19.764C77.426 19.692 77.426 19.656 77.39 19.728L76.994 20.196C76.814 20.304 76.634 20.52 76.634 20.556C76.634 20.592 76.598 20.628 76.562 20.664C76.49 20.736 76.418 20.736 76.382 20.664V20.736C76.382 20.844 76.346 20.952 76.202 21.024C76.13 21.06 76.022 21.204 76.022 21.276C76.022 21.384 76.022 21.384 75.986 21.276C75.95 21.204 75.878 21.276 75.806 21.42C75.77 21.564 75.698 21.672 75.698 21.672C75.59 21.636 75.59 21.672 75.626 21.708C75.662 21.708 75.626 21.816 75.554 21.852C75.482 21.924 75.446 22.032 75.446 22.068C75.446 22.104 75.41 22.14 75.338 22.14C75.302 22.14 75.266 22.176 75.302 22.248C75.302 22.284 75.266 22.32 75.23 22.284C75.158 22.284 75.122 22.32 75.158 22.356C75.194 22.356 74.654 23.148 74.51 23.292C74.474 23.328 74.402 23.436 74.402 23.544L74.15 23.904C73.682 24.588 73.502 24.804 73.43 24.804C73.394 24.804 73.394 24.876 73.394 24.912C73.394 24.948 73.322 25.02 73.286 25.128C73.178 25.164 73.07 25.236 73.034 25.344C72.602 25.848 72.206 25.956 71.594 25.848C71.306 25.812 71.09 25.74 71.054 25.704C70.946 25.632 70.874 25.632 70.766 25.632C70.37 25.632 70.226 25.056 70.442 24.444C70.478 24.336 70.514 24.192 70.514 24.192C70.478 24.192 70.658 23.544 70.838 23.184C70.838 23.076 70.91 22.932 70.91 22.86L71.234 22.248C71.414 21.924 71.486 21.708 71.45 21.708C71.414 21.708 71.414 21.672 71.486 21.636C71.522 21.564 71.594 21.492 71.594 21.384C71.594 21.312 71.63 21.276 71.666 21.312C71.738 21.348 71.738 21.348 71.738 21.276C71.63 21.168 71.918 20.484 72.026 20.484C72.062 20.484 72.062 20.412 72.062 20.376C71.99 20.304 72.17 19.872 72.35 19.764C72.386 19.764 72.386 19.728 72.35 19.728C72.314 19.728 72.386 19.548 72.53 19.368C72.602 19.116 72.71 18.936 72.674 18.936C72.638 18.936 72.638 18.9 72.71 18.864C72.71 18.864 72.854 18.612 72.962 18.36C73.106 17.928 73.106 17.892 72.962 17.784C72.494 17.424 72.494 17.424 72.818 17.244C73.106 17.064 73.502 17.136 74.114 17.388C74.762 17.676 75.05 17.892 75.05 18.108C75.05 18.432 74.762 19.188 74.69 19.224C74.618 19.224 74.654 19.296 74.69 19.332C74.726 19.368 74.618 19.548 74.51 19.728C74.402 19.908 74.294 20.196 74.222 20.376C74.15 20.556 74.042 20.628 74.006 20.628C73.934 20.628 73.934 20.628 73.97 20.664C74.006 20.736 74.006 20.808 73.934 20.844V21.024C73.934 21.024 73.862 21.06 73.826 21.024C73.754 21.024 73.718 21.06 73.754 21.096C73.79 21.132 73.754 21.276 73.718 21.348C73.538 21.636 73.682 21.492 74.15 20.952C74.366 20.628 74.618 20.268 74.726 20.232L74.906 20.016C76.166 18.54 76.994 17.712 77.498 17.46C77.93 17.28 78.29 17.316 79.082 17.676C79.838 17.964 79.946 18.108 79.838 18.756C79.802 19.044 79.658 19.62 79.586 19.692C79.55 19.728 79.514 19.872 79.478 20.016C79.442 20.196 79.406 20.232 79.37 20.232C79.298 20.232 79.262 20.304 79.262 20.412C79.262 20.52 79.262 20.628 79.226 20.628C79.19 20.628 79.118 20.736 79.118 20.844L78.938 21.348C78.722 21.888 78.47 22.428 78.506 22.428C78.542 22.428 78.542 22.464 78.506 22.536C78.398 22.644 77.822 24.372 77.858 24.408C77.858 24.408 77.822 24.768 77.822 24.804C77.786 25.02 77.894 25.092 78.506 24.264C78.722 23.976 78.902 23.76 79.01 23.58L79.19 23.328C79.226 23.328 79.55 22.896 80.09 22.212C80.846 21.276 80.882 21.24 80.882 21.24C80.954 21.24 80.99 21.24 80.99 21.276C80.954 21.456 80.666 22.032 80.486 22.464L80.306 22.896C80.234 23.112 80.198 23.112 80.126 23.256C80.126 23.292 80.09 23.292 80.09 23.328C80.126 23.4 79.946 23.544 79.91 23.76C79.874 23.976 79.658 24.264 79.658 24.336C79.658 24.372 79.55 24.624 79.37 24.912ZM84.3833 22.248C84.4193 22.248 84.4553 22.176 84.4193 22.104C84.3833 22.032 84.3833 21.888 84.4193 21.816C84.4553 21.744 84.4913 21.6 84.4913 21.528C84.5273 21.276 84.6353 20.808 84.6713 20.7C84.7433 20.52 84.7433 20.412 84.6713 20.34C84.6353 20.304 84.6353 20.304 84.6353 20.376C84.7073 20.484 84.3833 20.808 84.3113 20.772C84.2753 20.736 84.2753 20.808 84.2753 20.844C84.3113 20.952 84.3113 21.024 84.2753 21.06C84.2393 21.096 84.2033 21.06 84.2033 20.988C84.2033 20.916 84.1313 21.06 84.0233 21.24C83.9873 21.456 83.8433 21.672 83.7713 21.744C83.6993 21.816 83.6273 21.888 83.6273 21.924C83.6273 21.996 83.6273 22.068 83.5913 22.068C83.5193 22.068 83.5193 22.104 83.5193 22.176C83.5193 22.284 83.3033 22.5 83.2673 22.428C83.2673 22.392 83.2313 22.464 83.2313 22.608C83.2313 22.68 83.1953 22.752 83.1593 22.752C83.1233 22.752 83.0873 22.824 83.0873 22.896C83.0873 22.968 83.0513 23.04 83.0153 23.04C82.9793 23.04 82.9433 23.076 82.9433 23.184C82.9433 23.256 82.9433 23.292 82.9072 23.256C82.8353 23.22 82.7993 23.256 82.7993 23.328C82.7993 23.364 82.7993 23.472 82.7633 23.472L82.5833 23.832C82.5113 24.012 82.4393 24.156 82.3673 24.12C82.3313 24.084 82.2953 24.156 82.2953 24.264C82.2953 24.372 82.2953 24.408 82.2233 24.408C82.2233 24.408 82.1873 24.48 82.1873 24.552C82.1873 24.66 82.1873 24.732 82.1153 24.732C82.0793 24.732 82.0433 24.732 82.0433 24.84C82.0433 24.912 81.9713 25.02 81.9353 25.02C81.8633 25.056 81.8273 25.128 81.8273 25.2C81.8273 25.308 81.7192 25.488 81.6113 25.704C81.5033 25.884 81.4313 26.136 81.4313 26.172C81.4313 26.244 81.3953 26.28 81.3233 26.244C81.2873 26.208 81.2153 26.28 81.2153 26.424C81.1793 26.496 81.1433 26.676 81.0353 26.82C80.8193 27 80.4592 27.036 80.0992 26.892C79.7392 26.82 79.3792 26.568 79.2712 26.424C79.1992 26.316 79.1992 26.172 79.2712 25.704L79.4152 24.912C79.4512 24.732 79.4872 24.624 79.4872 24.552C79.5592 24.264 79.6312 24.084 79.7032 24.084C79.7392 24.084 79.7392 24.048 79.7392 24.012C79.6672 23.904 79.8832 23.076 80.1712 22.392C80.2792 22.14 80.3512 21.888 80.3512 21.852C80.3152 21.816 80.3512 21.816 80.3872 21.816C80.4592 21.816 80.4592 21.78 80.4592 21.744C80.3872 21.672 81.0713 19.944 81.1433 19.836C81.1793 19.8 81.1793 19.764 81.1793 19.764C81.1793 19.764 81.2873 19.44 81.4313 19.116C81.6113 18.54 81.6113 18.504 81.5033 18.324C81.4673 18.252 81.4673 18.18 81.4673 18.216C81.5033 18.252 81.5753 18.252 81.5753 18.252C81.5753 18.216 81.4673 18.144 81.3953 18.108C81.1793 18 81.1433 17.892 81.3233 17.604C81.4673 17.316 81.7913 17.136 82.0433 17.136C82.2233 17.136 82.8353 17.46 83.2673 17.856C83.6273 18.144 83.6273 18.288 83.4833 18.9C83.3753 19.224 83.4113 19.224 84.0593 18.36C85.2473 16.848 85.4633 16.74 86.3633 17.244C87.0833 17.64 87.1913 17.784 87.1913 18.324C87.1553 18.576 87.0833 18.756 87.0473 18.792C87.0113 18.792 86.9753 18.864 87.0113 18.9C87.0473 18.936 87.0113 19.08 86.9393 19.296C86.9033 19.476 86.8673 19.692 86.8673 19.728C86.9033 19.764 86.8313 19.764 86.8313 19.764C86.7593 19.764 86.7233 19.8 86.7593 19.908C86.7593 19.98 86.7593 20.052 86.6873 20.052C86.6513 20.052 86.6153 20.088 86.6513 20.124C86.6873 20.124 86.5433 20.556 86.4713 21.06C86.3273 21.528 86.1833 21.888 86.1833 21.816C86.1833 21.744 86.1833 21.708 86.1473 21.744C86.1473 21.744 86.1473 21.888 86.1833 21.96C86.2553 22.068 86.2553 22.176 86.1833 22.248C86.1473 22.248 86.1113 22.428 86.1113 22.608C86.1113 22.752 86.1113 22.86 86.0753 22.788C86.0033 22.752 86.0033 22.752 86.0753 22.86C86.1473 23.004 86.9033 22.356 87.8033 21.384C88.1633 20.988 88.4513 20.664 88.5233 20.664C88.5953 20.7 88.3793 21.348 88.2353 21.564C88.1633 21.672 88.0913 21.852 88.0913 21.888C88.0913 21.96 88.0193 22.104 87.9833 22.14C87.9113 22.212 87.9113 22.284 87.9113 22.356C87.9113 22.428 87.8033 22.608 87.6593 22.752C87.5513 22.968 87.3353 23.256 87.1913 23.436C86.5433 24.408 86.1833 24.516 85.2113 24.084C84.4913 23.796 84.3833 23.616 84.3473 22.824C84.3473 22.5 84.3473 22.248 84.3833 22.248ZM83.9873 21.312V21.168C83.9513 21.096 83.9153 21.132 83.9153 21.204C83.9153 21.312 83.9513 21.348 83.9873 21.312ZM89.0284 27.072C88.3804 27.036 87.5884 26.928 87.3004 26.712C87.1204 26.604 86.7964 25.524 86.9404 25.452C86.9764 25.344 86.9764 25.272 86.9764 25.2C86.9404 24.804 87.0484 24.444 87.2644 23.616C87.4444 22.788 87.9484 21.24 87.9844 21.168C88.0564 21.096 88.2364 20.736 88.4164 20.232L88.7044 19.44C88.8484 19.44 88.9204 18.792 88.7404 18.576C88.6684 18.396 88.6324 18.324 88.9204 18C89.0644 17.748 89.2444 17.496 89.3164 17.46C89.5684 17.316 90.4684 17.532 91.1884 17.784C91.5844 18.072 91.6924 18.144 91.6564 18.684C91.6564 18.684 91.5844 18.792 91.4764 18.828C91.4044 18.828 91.4044 18.828 91.5844 18.864C91.6564 18.864 91.6924 18.936 91.6924 18.936C91.6204 18.936 91.4764 19.116 91.4404 19.368C91.3324 19.548 91.1884 19.8 91.1884 19.8C91.1164 19.8 91.1164 19.872 91.1524 19.944C91.1524 20.016 91.1164 20.088 91.1164 20.088C91.0444 20.124 91.0444 20.196 91.0804 20.268C91.0804 20.376 91.0084 20.484 90.9364 20.412C90.8644 20.412 90.7924 20.412 90.8284 20.52C90.8644 20.736 90.8644 20.808 90.7924 20.844C90.6484 20.772 90.6484 20.772 90.6484 20.844C90.7564 20.916 90.7564 21.024 90.6484 21.096C90.5764 21.204 90.5404 21.384 90.5404 21.384C90.5404 21.456 90.5764 21.528 90.5044 21.528C90.4324 21.672 90.3244 21.816 90.2884 21.996C90.2524 22.284 90.0724 22.608 90.0004 22.968C89.9284 23.22 89.7484 23.616 89.7484 23.688C89.7124 23.868 89.6404 23.868 89.5684 23.868C89.5684 23.868 89.4604 23.94 89.6044 24.012C89.6044 24.084 89.6404 24.228 89.6044 24.408C89.4604 24.588 89.4604 24.66 89.4604 24.66C89.5684 24.66 89.6044 24.732 89.5324 24.84C89.4604 24.948 89.3884 25.02 89.4244 25.2C89.4244 25.272 89.3884 25.416 89.3884 25.416C89.3524 25.488 89.3524 25.56 89.3524 25.56C89.4244 25.668 91.0444 23.688 92.6284 21.744C93.0244 21.276 93.2764 21.204 93.3124 21.42C93.3124 21.492 93.2764 21.6 93.2764 21.6C93.2044 21.6 93.1324 21.672 93.0964 21.888C91.7644 23.94 91.6564 24.264 90.5044 26.568C90.2884 26.964 89.6764 27.108 89.0284 27.072ZM90.5404 13.86C90.3964 13.824 90.3244 13.716 90.3244 13.716C90.2884 13.572 91.1884 12.312 91.3324 12.276C91.5484 12.24 92.8444 12.492 93.3124 12.78C93.5284 12.888 93.6364 13.032 93.6364 13.104C93.6724 13.284 93.6364 13.356 93.5644 13.356C93.5644 13.356 93.4564 13.392 93.4564 13.464C93.6004 13.5 93.3124 14.292 93.1684 14.544C92.9524 14.868 92.5564 16.056 92.5924 16.272C92.7364 16.596 92.6644 16.632 92.3044 16.452C92.0524 16.452 91.8364 16.2 91.8004 15.984C91.8004 15.984 91.7644 15.804 91.6204 15.66C91.5124 15.624 91.3684 15.156 91.1884 14.688C90.9724 14.076 90.8644 13.932 90.6844 13.968C90.6124 14.004 90.6124 14.004 90.6124 13.932C90.6124 13.932 90.6124 13.86 90.5404 13.86ZM97.2414 28.26C97.2774 28.26 97.2414 28.512 97.0974 28.8C96.8814 29.376 96.8454 29.376 96.7014 29.196C96.6654 28.944 96.6654 28.944 96.7014 29.232C96.7374 29.484 96.5574 30.132 96.2694 30.78L96.0534 31.212C95.9094 31.536 95.9094 31.608 95.8374 31.464C95.7654 31.356 95.7654 31.356 95.8014 31.536C95.8734 31.752 95.7654 32.076 95.3334 33.372C95.2614 33.516 95.1894 33.588 95.1534 33.552C95.0454 33.552 95.0094 33.552 94.9734 33.588C94.9014 33.66 94.9734 33.66 95.0094 33.66C95.1894 33.66 95.1894 33.696 95.0454 34.2L94.7214 35.424C94.6134 35.784 94.5054 36.144 94.5414 36.144C94.5414 36.144 94.5774 36.216 94.5054 36.288C94.4334 36.36 94.3974 36.576 94.3974 36.828C94.3974 37.044 94.3614 37.404 94.3254 37.692C94.1814 38.556 94.1814 38.736 94.3254 38.736C94.5414 38.736 94.5054 39.168 94.3614 39.492C94.2174 39.672 94.1094 39.672 93.6414 39.708C93.2814 39.708 92.9934 39.672 92.8494 39.636C92.5974 39.528 92.3094 39.132 92.1654 38.772C92.0934 38.448 92.3094 37.08 92.4534 37.08C92.5254 37.08 92.5254 36.972 92.5254 36.9C92.5254 36.828 92.7054 36.288 92.8134 35.748C92.9574 35.244 93.3534 34.236 93.6054 33.516C93.8214 32.76 94.1814 31.68 94.3974 31.14C94.8294 29.952 94.9014 29.592 95.7294 27.504C95.8374 27.144 96.2334 26.244 96.4854 25.524C96.8094 24.768 97.0614 24.156 96.9894 24.12C96.9894 24.084 97.0614 24.012 97.0974 24.012C97.1334 24.012 97.2054 23.976 97.2054 23.94C97.2054 23.868 97.3134 23.508 97.4574 23.184C97.6374 22.788 97.6734 22.536 97.6374 22.5C97.5654 22.464 97.5654 22.5 97.6014 22.536C97.6014 22.608 97.6014 22.644 97.5654 22.644C97.5294 22.644 97.4574 22.752 97.4574 22.824C97.4934 22.896 97.4574 22.932 97.4214 22.932C97.3494 22.932 97.3134 23.076 97.2774 23.148C97.2414 23.292 97.2054 23.364 97.1694 23.364C97.0974 23.364 97.0614 23.472 97.0614 23.58C97.0614 23.616 97.0254 23.652 96.9534 23.616C96.8814 23.58 96.8814 23.616 96.9174 23.652C96.9174 23.724 96.9174 23.868 96.8454 23.976C96.7374 24.12 96.7014 24.264 96.7014 24.3C96.7014 24.372 96.5574 24.552 96.4494 24.696C96.3054 24.84 96.1614 25.092 96.1614 25.2C96.1614 25.344 96.0174 25.488 95.9454 25.56L95.6934 26.028C95.6574 26.172 95.5134 26.208 95.5134 26.208C95.4414 26.172 95.4414 26.172 95.4774 26.244C95.5134 26.352 94.8654 27.18 94.5054 27.396C94.3614 27.432 94.0734 27.54 93.8214 27.54C93.2814 27.576 92.2734 27.36 92.2014 27.252C92.2014 27.216 92.0934 27.18 91.9854 27.18C91.6974 27.18 91.3374 26.712 91.1934 26.244C91.0134 25.812 90.9774 24.84 91.1574 24.264C91.1574 24.084 91.1934 23.904 91.2654 23.868C91.2654 23.436 91.8414 22.068 91.9494 21.852C92.0214 21.816 92.0574 21.672 92.0574 21.636C92.0574 21.528 92.0934 21.528 92.2014 21.528C92.2734 21.528 92.2734 21.456 92.2374 21.42C92.1654 21.384 92.1654 21.312 92.2374 21.312C92.2734 21.312 92.3814 21.168 92.4174 21.024C92.4174 20.88 92.6334 20.664 92.6334 20.52C92.7774 20.376 92.8134 20.304 92.8134 20.232C92.7774 20.196 92.8134 20.196 92.8494 20.196C92.8854 20.196 92.9574 20.16 92.9574 20.088C92.9214 19.944 93.2094 19.692 93.6774 19.08C94.8654 17.784 96.3774 17.064 97.4214 17.352C97.9254 17.46 98.5014 17.748 99.0414 18.144L99.4014 18.36L99.6534 17.964C100.085 17.208 100.229 17.064 100.481 17.172C100.877 17.244 101.885 17.712 102.101 17.892C102.353 18.144 102.389 18.432 102.173 18.72L102.029 18.972C101.957 19.224 101.957 19.26 101.885 19.188C101.777 19.188 101.777 19.188 101.813 19.26C101.885 19.332 101.813 19.476 101.777 19.512C101.777 19.62 101.561 19.908 101.453 20.196C101.309 20.52 101.165 20.772 101.093 20.736C100.985 20.736 100.949 20.772 100.949 20.88C100.985 21.132 100.841 21.42 100.589 21.852C100.517 21.996 100.373 22.212 100.373 22.248H100.337C100.265 22.248 100.265 22.248 100.265 22.284C100.301 22.392 100.085 22.824 100.013 22.824C99.9774 22.824 99.9414 22.932 99.9414 23.04C99.9414 23.112 99.9414 23.22 99.9054 23.22C99.9054 23.292 99.5814 23.76 99.3294 24.3C99.0774 24.84 98.7894 25.272 98.7174 25.344C98.6814 25.344 98.6814 25.38 98.6814 25.488C98.6814 25.524 98.4294 26.064 98.1054 26.712C97.7814 27.36 97.5294 27.972 97.5294 27.972C97.5294 28.044 97.4214 28.116 97.3134 28.188C97.2414 28.224 97.2414 28.26 97.2414 28.26ZM94.0374 25.092C95.0814 24.084 98.0694 20.88 98.2854 20.52L98.5734 20.196L98.2854 20.088C97.8894 19.908 97.2054 19.368 97.2774 19.224C97.3134 18.972 96.9894 19.188 96.2334 19.836C95.9454 20.052 95.7654 20.196 95.7294 20.196C95.6934 20.196 95.6214 20.196 95.6934 20.304C95.7294 20.376 95.5134 20.592 95.4054 20.484C95.3334 20.448 95.3334 20.484 95.4054 20.52C95.4774 20.628 95.0454 21.096 94.9014 21.024C94.8654 21.024 94.8654 21.024 94.9014 21.096C94.9734 21.168 94.2534 22.284 94.1094 22.392C94.0374 22.464 94.0374 22.464 94.0374 22.5C94.1094 22.5 94.0014 22.752 93.8934 23.076C93.5694 23.904 93.4254 24.516 93.3174 25.128C93.2814 25.488 93.2814 25.74 93.2454 25.812C93.1374 25.956 93.4254 25.74 94.0374 25.092ZM106.112 20.772C106.148 20.736 106.4 20.34 106.652 19.872L107.624 18.324C108.056 17.604 108.092 17.568 108.344 17.568C108.812 17.568 109.568 17.856 109.784 18C109.964 18.18 109.964 18.252 109.928 18.432C109.856 18.54 109.784 18.612 109.748 18.576C109.712 18.54 109.712 18.576 109.748 18.612C109.82 18.756 109.316 20.16 109.244 20.016C109.172 19.98 109.172 19.98 109.208 20.124C109.244 20.232 109.208 20.34 109.136 20.412L109.064 20.484C109.136 20.448 109.172 20.448 109.172 20.52C109.172 20.592 109.172 20.592 109.136 20.592C109.1 20.592 109.064 20.664 109.064 20.7C109.064 20.772 108.92 21.348 108.668 21.996L108.236 23.508C108.236 24.048 108.128 24.408 108.02 24.408C107.984 24.408 107.984 24.408 108.056 24.48C108.128 24.516 108.128 24.696 108.128 24.912C108.164 25.632 108.164 25.632 108.416 25.344C108.884 24.732 109.748 23.616 110.432 22.608C111.296 21.456 111.692 20.916 111.872 20.916C111.944 20.916 111.98 21.096 111.872 21.204C111.764 21.348 111.404 22.176 111.476 22.212C111.476 22.248 111.476 22.284 111.44 22.284C111.368 22.284 111.332 22.32 111.332 22.392C111.332 22.572 111.008 23.4 110.9 23.4C110.9 23.364 110.864 23.436 110.9 23.508C110.936 23.544 110.9 23.688 110.864 23.796C110.792 23.868 110.756 24.012 110.756 24.084L110.432 24.984C110.324 25.2 110.252 25.452 110.252 25.488C110.252 25.524 109.964 25.992 109.748 26.244C109.388 26.676 108.596 26.856 107.588 26.676C106.904 26.568 106.616 26.352 106.4 25.668C106.256 25.272 106.184 25.02 106.22 24.696C106.22 24.444 106.184 24.264 106.184 24.264C106.148 24.264 106.148 24.3 106.148 24.372C106.148 24.408 106.076 24.48 106.076 24.48C106.004 24.48 105.968 24.552 105.968 24.588C105.968 24.66 105.932 24.696 105.932 24.732C105.896 24.732 105.716 25.02 105.464 25.344C104.96 26.1 104.456 26.676 103.988 26.856C103.628 27.036 102.584 27.072 102.044 26.892C101.432 26.712 101.252 26.388 101.216 25.344C101.18 24.876 101.216 24.552 101.288 24.408C101.36 24.3 101.36 24.12 101.36 24.084C101.324 23.976 101.36 23.868 101.396 23.796C101.468 23.76 101.468 23.688 101.468 23.688C101.432 23.688 101.612 23.004 101.828 22.464C101.864 22.32 101.936 22.176 101.936 22.14C101.936 21.996 102.512 20.592 102.872 19.62C103.196 18.864 103.268 18.54 103.088 18.648C103.052 18.684 102.98 18.612 102.944 18.54C102.944 18.396 103.232 17.712 103.556 17.28C103.808 17.028 104.348 17.1 105.176 17.46C105.608 17.64 105.716 17.82 105.536 18.144C105.5 18.252 105.356 18.54 105.284 18.792L104.924 19.728C104.816 20.016 104.708 20.268 104.708 20.304C104.708 20.34 104.6 20.592 104.456 20.916C104.348 21.204 104.24 21.528 104.24 21.528C104.24 21.564 104.168 21.672 104.096 21.744C103.988 21.816 103.952 21.924 103.988 21.96C104.024 22.032 103.52 23.472 103.412 23.4V23.436C103.448 23.508 103.448 23.616 103.412 23.76C103.232 24.228 103.088 25.128 103.088 25.416V25.704L103.34 25.452C103.484 25.272 103.736 24.876 103.916 24.552C104.096 24.228 104.312 23.94 104.348 23.94C104.348 23.94 104.384 23.904 104.384 23.832C104.384 23.796 104.564 23.436 104.852 23.04C105.068 22.572 105.284 22.248 105.284 22.212C105.284 22.176 105.464 21.888 105.68 21.528C105.896 21.204 106.076 20.88 106.076 20.844C106.076 20.808 106.076 20.772 106.112 20.772ZM103.016 24.516C103.088 24.444 103.088 24.408 103.088 24.372C103.052 24.336 102.98 24.408 102.944 24.444C102.944 24.552 102.944 24.588 103.016 24.516ZM103.304 23.616C103.304 23.544 103.268 23.58 103.268 23.688C103.268 23.796 103.304 23.832 103.304 23.796C103.34 23.76 103.34 23.652 103.304 23.616ZM118.714 22.752C118.606 22.824 118.606 22.86 118.678 22.824C118.822 22.752 118.606 23.112 118.102 23.832C116.626 25.92 115.978 26.568 115.006 26.856C114.43 27 113.062 27.108 112.522 27C111.982 26.892 111.73 26.784 111.406 26.496C111.118 26.244 110.686 25.416 110.758 25.272C110.794 25.236 110.758 25.164 110.686 25.164C110.542 25.128 110.542 22.932 110.686 22.896C110.758 22.86 110.758 22.788 110.758 22.716C110.722 22.644 110.758 22.5 110.794 22.392C110.866 22.32 110.902 22.284 110.866 22.284C110.83 22.284 110.866 22.14 110.938 21.924C111.046 21.672 111.046 21.528 111.01 21.528C111.01 21.456 111.046 21.384 111.01 21.312C111.046 21.276 111.082 21.276 111.082 21.276C111.118 21.312 111.298 21.132 111.478 20.808C111.622 20.556 111.802 20.34 111.838 20.34C111.874 20.34 111.91 20.268 111.91 20.196C111.91 20.016 113.134 18.72 113.746 18.252C114.862 17.388 115.582 17.244 116.698 17.604C117.886 17.964 118.642 18.504 118.606 19.008C118.606 19.368 118.498 19.872 118.426 19.872C118.39 19.872 118.354 19.944 118.354 20.052C118.354 20.16 118.282 20.268 118.174 20.34C118.138 20.448 118.066 20.52 118.066 20.592C117.994 20.88 116.662 21.96 115.69 22.428C115.006 22.788 114.934 22.824 114.034 22.824L113.098 22.86L113.026 23.4C112.99 23.724 112.918 23.976 112.846 23.976C112.81 23.976 112.81 24.012 112.882 24.084C112.918 24.156 112.99 24.48 113.026 24.804C113.026 25.128 113.098 25.416 113.134 25.452C113.206 25.452 113.242 25.524 113.242 25.632C113.242 25.74 113.674 26.244 113.782 26.244C113.854 26.244 115.006 25.38 115.906 24.696C116.914 23.868 118.39 22.392 118.858 21.744C119.218 21.24 119.506 21.096 119.398 21.456C119.326 21.78 118.858 22.644 118.714 22.752ZM113.71 21.348C113.638 21.348 113.602 21.42 113.602 21.492C113.602 21.636 113.638 21.636 114.358 21.168C115.006 20.736 115.438 20.34 115.834 19.728C116.302 18.972 116.338 18.828 115.942 19.116C115.762 19.26 115.582 19.368 115.546 19.368C115.366 19.368 114.25 20.556 113.926 21.096C113.854 21.204 113.746 21.348 113.71 21.348Z" fill="black"/>
</svg>
